<?xml version="1.0" encoding="UTF-8" standalone="no"?>
<!-- Created with Inkscape (http://www.inkscape.org/) -->

<svg
   xmlns:dc="http://purl.org/dc/elements/1.1/"
   xmlns:cc="http://creativecommons.org/ns#"
   xmlns:rdf="http://www.w3.org/1999/02/22-rdf-syntax-ns#"
   xmlns:svg="http://www.w3.org/2000/svg"
   xmlns="http://www.w3.org/2000/svg"
   xmlns:sodipodi="http://sodipodi.sourceforge.net/DTD/sodipodi-0.dtd"
   xmlns:inkscape="http://www.inkscape.org/namespaces/inkscape"
   version="1.2"
   width="145.72501"
   height="96.339142"
   id="svg2"
   inkscape:version="0.48.4 r9939"
   sodipodi:docname="logo.plain.svg">
  <sodipodi:namedview
     pagecolor="#ffffff"
     bordercolor="#666666"
     borderopacity="1"
     objecttolerance="10"
     gridtolerance="10"
     guidetolerance="10"
     inkscape:pageopacity="0"
     inkscape:pageshadow="2"
     inkscape:window-width="1680"
     inkscape:window-height="1023"
     id="namedview22"
     showgrid="false"
     fit-margin-top="10"
     fit-margin-left="10"
     fit-margin-right="10"
     fit-margin-bottom="10"
     inkscape:zoom="1.4751427"
     inkscape:cx="-69.835555"
     inkscape:cy="48.169572"
     inkscape:window-x="0"
     inkscape:window-y="27"
     inkscape:window-maximized="1"
     inkscape:current-layer="svg2" />
  <defs
     id="defs4" />
  <metadata
     id="metadata7">
    <rdf:RDF>
      <cc:Work
         rdf:about="">
        <dc:format>image/svg+xml</dc:format>
        <dc:type
           rdf:resource="http://purl.org/dc/dcmitype/StillImage" />
        <dc:title />
      </cc:Work>
    </rdf:RDF>
  </metadata>
  <flowRoot
     style="font-size:56px;font-style:normal;font-variant:normal;font-weight:normal;font-stretch:normal;line-height:125%;letter-spacing:0px;word-spacing:0px;fill:#000000;fill-opacity:1;stroke:none;font-family:Lato;-inkscape-font-specification:Lato"
     xml:space="preserve"
     id="flowRoot2985"
     transform="translate(-232.771,-210.62234)"><flowRegion
       id="flowRegion2987"><rect
         style="font-size:56px;font-style:normal;font-variant:normal;font-weight:normal;font-stretch:normal;font-family:Lato;-inkscape-font-specification:Lato"
         id="rect2989"
         y="298.07648"
         x="42.857143"
         height="445.71429"
         width="600" /></flowRegion><flowPara
       id="flowPara2991" /></flowRoot>  <flowRoot
     style="font-size:16px;font-style:normal;font-weight:normal;line-height:125%;letter-spacing:0px;word-spacing:0px;fill:#000000;fill-opacity:1;stroke:none;font-family:Bitstream Vera Sans"
     xml:space="preserve"
     id="flowRoot2993"
     transform="translate(-232.771,-210.62234)"><flowRegion
       id="flowRegion2995"><rect
         id="rect2997"
         y="315.21933"
         x="114.28571"
         height="151.42857"
         width="194.28572" /></flowRegion><flowPara
       id="flowPara2999" /></flowRoot>  <g
     id="g3783"
     transform="translate(-25.43307,-25.43307)">
    <path
       d="m 62.5533,64.88107 c 0.064,0 0.11997,0.024 0.168,0.072 l 0.216,0.192 c -0.70403,0.688 -1.46403,1.32 -2.28,1.896 -0.80003,0.56 -1.68003,1.048 -2.64,1.464 -0.96003,0.4 -2.01602,0.712 -3.168,0.936 -1.15202,0.24 -2.42402,0.36 -3.816,0.36 -2.25602,0 -4.33601,-0.392 -6.24,-1.176 -1.90401,-0.8 -3.55201,-1.944 -4.944,-3.432 -1.39201,-1.48799 -2.48001,-3.28799 -3.264,-5.4 -0.768,-2.12799 -1.152,-4.51999 -1.152,-7.176 0,-2.55998 0.384,-4.89598 1.152,-7.008 0.78399,-2.11197 1.87999,-3.91997 3.288,-5.424 1.42399,-1.51997 3.11999,-2.68797 5.088,-3.504 1.98398,-0.83197 4.16798,-1.24797 6.552,-1.248 1.21598,3e-5 2.31198,0.08 3.288,0.24 0.97598,0.16003 1.88798,0.40803 2.736,0.744 0.84797,0.32003 1.64797,0.72803 2.4,1.224 0.76797,0.49603 1.54397,1.07203 2.328,1.728 l -0.072,0.12 c -0.064,0.08 -0.13603,0.12003 -0.216,0.12 -0.12803,3e-5 -0.30403,-0.088 -0.528,-0.264 -0.20803,-0.19197 -0.49603,-0.42397 -0.864,-0.696 -0.35203,-0.27197 -0.79203,-0.56797 -1.32,-0.888 -0.52803,-0.31997 -1.16003,-0.61597 -1.896,-0.888 -0.73602,-0.27197 -1.59202,-0.49597 -2.568,-0.672 -0.96002,-0.19197 -2.05602,-0.28797 -3.288,-0.288 -2.27202,3e-5 -4.36002,0.39203 -6.264,1.176 -1.88801,0.76803 -3.52001,1.88003 -4.896,3.336 -1.36001,1.44003 -2.42401,3.19203 -3.192,5.256 -0.76801,2.06402 -1.152,4.37602 -1.152,6.936 0,2.60801 0.376,4.94401 1.128,7.008 0.76799,2.06401 1.82399,3.81601 3.168,5.256 1.34399,1.44 2.92799,2.544 4.752,3.312 1.83998,0.752 3.83198,1.128 5.976,1.128 1.35998,0 2.57598,-0.096 3.648,-0.288 1.07198,-0.192 2.04798,-0.472 2.928,-0.84 0.89597,-0.368 1.71997,-0.816 2.472,-1.344 0.76797,-0.544 1.52797,-1.16 2.28,-1.848 0.08,-0.08 0.14397,-0.12 0.192,-0.12"
       id="path3037"
       style="font-size:48px;font-style:normal;font-variant:normal;font-weight:300;font-stretch:normal;text-align:start;line-height:125%;letter-spacing:0px;word-spacing:0px;writing-mode:lr-tb;text-anchor:start;fill:#a6c2be;fill-opacity:1;stroke:none;font-family:Lato;-inkscape-font-specification:Lato Light"
       inkscape:connector-curvature="0" />
    <path
       d="m 97.27958,69.41707 -0.432,0 c -0.14403,0 -0.24003,-0.08 -0.288,-0.24 l -4.68,-11.232 -17.712,0 -4.68,11.232 c -0.048,0.16 -0.16,0.24 -0.336,0.24 l -0.384,0 14.016,-33.6 0.48,0 14.016,33.6 m -22.92,-11.952 17.328,0 -8.28,-19.872 c -0.08,-0.17597 -0.15201,-0.33597 -0.216,-0.48 -0.048,-0.15997 -0.10401,-0.32797 -0.168,-0.504 -0.064,0.17603 -0.12801,0.34403 -0.192,0.504 -0.048,0.14403 -0.11201,0.30403 -0.192,0.48 l -8.28,19.872"
       id="path3039"
       style="font-size:48px;font-style:normal;font-variant:normal;font-weight:300;font-stretch:normal;text-align:start;line-height:125%;letter-spacing:0px;word-spacing:0px;writing-mode:lr-tb;text-anchor:start;fill:#a6c2be;fill-opacity:1;stroke:none;font-family:Lato;-inkscape-font-specification:Lato Light"
       inkscape:connector-curvature="0" />
    <path
       d="m 105.66556,53.19307 0,16.224 -0.576,0 0,-33.6 7.776,0 c 3.50398,3e-5 6.19198,0.68003 8.064,2.04 1.88798,1.36003 2.83197,3.48003 2.832,6.36 -3e-5,1.36002 -0.26403,2.59202 -0.792,3.696 -0.52802,1.08802 -1.27202,2.01602 -2.232,2.784 -0.96002,0.76802 -2.11202,1.36802 -3.456,1.8 -1.32802,0.43202 -2.80002,0.66402 -4.416,0.696 0.15999,0.064 0.30399,0.15202 0.432,0.264 0.12798,0.096 0.25598,0.21602 0.384,0.36 l 13.104,15.6 -0.384,0 c -0.12803,0 -0.23203,-0.008 -0.312,-0.024 -0.08,-0.032 -0.18403,-0.12 -0.312,-0.264 l -12.576,-15.072 c -0.14401,-0.17598 -0.28801,-0.31998 -0.432,-0.432 -0.12801,-0.11198 -0.28001,-0.19998 -0.456,-0.264 -0.16001,-0.064 -0.35201,-0.10398 -0.576,-0.12 -0.22401,-0.032 -0.50401,-0.048 -0.84,-0.048 l -5.232,0 m 0,-0.48 6.768,0 c 1.64798,2e-5 3.12798,-0.19198 4.44,-0.576 1.32798,-0.39998 2.45598,-0.95998 3.384,-1.68 0.94398,-0.73598 1.66398,-1.62398 2.16,-2.664 0.51198,-1.05598 0.76798,-2.24798 0.768,-3.576 -2e-5,-2.73597 -0.88802,-4.73597 -2.664,-6 -1.77602,-1.27997 -4.32802,-1.91997 -7.656,-1.92 l -7.2,0 0,16.416"
       id="path3041"
       style="font-size:48px;font-style:normal;font-variant:normal;font-weight:300;font-stretch:normal;text-align:start;line-height:125%;letter-spacing:0px;word-spacing:0px;writing-mode:lr-tb;text-anchor:start;fill:#a6c2be;fill-opacity:1;stroke:none;font-family:Lato;-inkscape-font-specification:Lato Light"
       inkscape:connector-curvature="0" />
    <path
       d="m 82.528,77.78821 c 1.15198,3e-5 2.27998,0.16803 3.384,0.504 1.11998,0.33603 2.11198,0.86403 2.976,1.584 0.86398,0.70403 1.55998,1.60803 2.088,2.712 0.54398,1.10403 0.81598,2.43203 0.816,3.984 -2e-5,1.28002 -0.20802,2.47202 -0.624,3.576 -0.40002,1.10402 -0.94402,2.16002 -1.632,3.168 -0.68802,1.00802 -1.48802,2.00002 -2.4,2.976 -0.89602,0.96001 -1.84002,1.94401 -2.832,2.952 l -11.856,12.096 c 0.33599,-0.032 0.71999,-0.056 1.152,-0.072 0.44799,-0.016 0.94399,-0.024 1.488,-0.024 l 17.376,0 c 0.15998,0 0.23998,0.08 0.24,0.24 l 0,0.288 -21.024,0 0,-0.192 c 0,-0.096 0.024,-0.176 0.072,-0.24 0.048,-0.064 0.088,-0.112 0.12,-0.144 l 12.096,-12.288 c 0.99198,-1.00799 1.92798,-1.99199 2.808,-2.952 0.87998,-0.95998 1.64798,-1.93598 2.304,-2.928 0.65598,-0.99198 1.17598,-2.01598 1.56,-3.072 0.38398,-1.05598 0.57598,-2.18398 0.576,-3.384 -2e-5,-1.45597 -0.24802,-2.70397 -0.744,-3.744 -0.49602,-1.05597 -1.15202,-1.91997 -1.968,-2.592 -0.81602,-0.67197 -1.74402,-1.16797 -2.784,-1.488 -1.04002,-0.31997 -2.10402,-0.47997 -3.192,-0.48 -1.24801,3e-5 -2.40001,0.19203 -3.456,0.576 -1.04001,0.38403 -1.96001,0.92803 -2.76,1.632 -0.80001,0.68803 -1.46401,1.51203 -1.992,2.472 -0.51201,0.96003 -0.86401,2.02403 -1.056,3.192 -0.048,0.25603 -0.17601,0.38403 -0.384,0.384 l -0.24,0 c 0.17599,-1.34397 0.53599,-2.55197 1.08,-3.624 0.55999,-1.08797 1.27199,-2.00797 2.136,-2.76 0.86399,-0.75197 1.85599,-1.32797 2.976,-1.728 1.13599,-0.41597 2.36799,-0.62397 3.696,-0.624"
       id="path3044"
       style="font-size:48px;font-style:normal;font-variant:normal;font-weight:300;font-stretch:normal;text-align:start;line-height:125%;letter-spacing:0px;word-spacing:0px;writing-mode:lr-tb;text-anchor:start;fill:#a6c2be;fill-opacity:1;stroke:none;font-family:Lato;-inkscape-font-specification:Lato Light"
       inkscape:connector-curvature="0" />
    <path
       d="m 127.56509,111.77221 -0.432,0 c -0.14403,0 -0.24003,-0.08 -0.288,-0.24 l -4.68,-11.232 -17.712,0 -4.68,11.232 c -0.048,0.16 -0.16,0.24 -0.336,0.24 l -0.384,0 14.016,-33.6 0.48,0 14.016,33.6 m -22.92,-11.952 17.328,0 -8.28,-19.872 c -0.08,-0.17597 -0.15201,-0.33597 -0.216,-0.48 -0.048,-0.15997 -0.10401,-0.32797 -0.168,-0.504 -0.064,0.17603 -0.12801,0.34403 -0.192,0.504 -0.048,0.14403 -0.11201,0.30403 -0.192,0.48 l -8.28,19.872"
       id="path3046"
       style="font-size:48px;font-style:normal;font-variant:normal;font-weight:300;font-stretch:normal;text-align:start;line-height:125%;letter-spacing:0px;word-spacing:0px;writing-mode:lr-tb;text-anchor:start;fill:#a6c2be;fill-opacity:1;stroke:none;font-family:Lato;-inkscape-font-specification:Lato Light"
       inkscape:connector-curvature="0" />
    <path
       d="m 161.02508,94.97221 c -3e-5,2.65601 -0.38403,5.02401 -1.152,7.104 -0.75203,2.08001 -1.81603,3.84001 -3.192,5.28 -1.36003,1.44 -2.99203,2.536 -4.896,3.288 -1.90402,0.752 -4.00802,1.128 -6.312,1.128 l -12,0 0,-33.6 12,0 c 2.30398,3e-5 4.40798,0.37603 6.312,1.128 1.90397,0.75203 3.53597,1.84803 4.896,3.288 1.37597,1.44003 2.43997,3.20003 3.192,5.28 0.76797,2.08002 1.15197,4.44802 1.152,7.104 m -0.624,0 c -3e-5,-2.60798 -0.36803,-4.91998 -1.104,-6.936 -0.72003,-2.03197 -1.73603,-3.74397 -3.048,-5.136 -1.31203,-1.39197 -2.88803,-2.44797 -4.728,-3.168 -1.82402,-0.71997 -3.84002,-1.07997 -6.048,-1.08 l -11.424,0 0,32.64 11.424,0 c 2.20798,0 4.22398,-0.36 6.048,-1.08 1.83997,-0.72 3.41597,-1.776 4.728,-3.168 1.31197,-1.39199 2.32797,-3.09599 3.048,-5.112 0.73597,-2.03199 1.10397,-4.35199 1.104,-6.96"
       id="path3048"
       style="font-size:48px;font-style:normal;font-variant:normal;font-weight:300;font-stretch:normal;text-align:start;line-height:125%;letter-spacing:0px;word-spacing:0px;writing-mode:lr-tb;text-anchor:start;fill:#a6c2be;fill-opacity:1;stroke:none;font-family:Lato;-inkscape-font-specification:Lato Light"
       inkscape:connector-curvature="0" />
    <path
       d="m 161.15769,52.64813 c -0.0746,4.62 3.9e-4,16.79978 3.9e-4,16.79978 -9.18423,-0.0137 -18.36814,5e-5 -27.55239,2.2e-4 l 0,-33.59985 12,-1.5e-4 c 2.30398,3e-5 4.40798,0.37603 6.312,1.128 1.90397,0.75203 3.53597,1.84803 4.896,3.288 1.37597,1.44003 2.43997,3.20003 3.192,5.28 0.76797,2.08002 1.15236,4.44802 1.15239,7.104"
       id="path3060"
       style="font-size:48px;font-style:normal;font-variant:normal;font-weight:300;font-stretch:normal;text-align:start;line-height:125%;letter-spacing:0px;word-spacing:0px;writing-mode:lr-tb;text-anchor:start;fill:#a6c2be;fill-opacity:1;stroke:none;font-family:Lato;-inkscape-font-specification:Lato Light"
       inkscape:connector-curvature="0" />
    <path
       d="m 35.43346,94.97191 c 0.0746,-4.62 -3.9e-4,-16.79978 -3.9e-4,-16.79978 9.18423,0.0137 18.36814,-5e-5 27.55239,-2.2e-4 l 0,33.6 -12,0 c -2.30398,-3e-5 -4.40798,-0.37603 -6.312,-1.128 -1.90397,-0.75203 -3.53597,-1.84803 -4.896,-3.288 -1.37597,-1.44003 -2.43997,-3.20003 -3.192,-5.28 -0.76797,-2.08002 -1.15236,-4.44802 -1.15239,-7.104"
       id="path3064"
       style="font-size:48px;font-style:normal;font-variant:normal;font-weight:300;font-stretch:normal;text-align:start;line-height:125%;letter-spacing:0px;word-spacing:0px;writing-mode:lr-tb;text-anchor:start;fill:#a6c2be;fill-opacity:1;stroke:none;font-family:Lato;-inkscape-font-specification:Lato Light"
       inkscape:connector-curvature="0" />
  </g>
</svg>
